<svg width="113" height="18" viewBox="0 0 113 18" fill="none" xmlns="http://www.w3.org/2000/svg">
<path d="M13.12 13.2699C13.12 14.1499 12.896 14.9179 12.448 15.5739C12 16.2299 11.392 16.7419 10.624 17.1099C9.872 17.4779 9.04 17.6619 8.128 17.6619H0.04V0.621864H8.512C9.312 0.621864 10 0.837864 10.576 1.26986C11.168 1.68586 11.616 2.22987 11.92 2.90187C12.24 3.55787 12.4 4.24586 12.4 4.96586C12.4 5.79786 12.184 6.58186 11.752 7.31786C11.336 8.03786 10.736 8.57386 9.952 8.92586C10.928 9.21386 11.696 9.74986 12.256 10.5339C12.832 11.3019 13.12 12.2139 13.12 13.2699ZM10.936 12.8859C10.936 12.3579 10.816 11.8699 10.576 11.4219C10.352 10.9739 10.04 10.6139 9.64 10.3419C9.256 10.0699 8.808 9.93386 8.296 9.93386H2.2V15.7899H8.128C8.656 15.7899 9.128 15.6539 9.544 15.3819C9.976 15.1099 10.312 14.7579 10.552 14.3259C10.808 13.8779 10.936 13.3979 10.936 12.8859ZM2.2 2.49386V8.18186H7.624C8.136 8.18186 8.584 8.05386 8.968 7.79786C9.368 7.54186 9.68 7.19786 9.904 6.76586C10.144 6.33386 10.264 5.86186 10.264 5.34986C10.264 4.80586 10.152 4.32586 9.928 3.90986C9.72 3.47786 9.424 3.13386 9.04 2.87786C8.672 2.62186 8.248 2.49386 7.768 2.49386H2.2ZM21.2776 17.9019C20.3336 17.9019 19.4776 17.7339 18.7096 17.3979C17.9416 17.0459 17.2776 16.5739 16.7176 15.9819C16.1576 15.3739 15.7256 14.6779 15.4216 13.8939C15.1176 13.1099 14.9656 12.2859 14.9656 11.4219C14.9656 10.5419 15.1176 9.70986 15.4216 8.92586C15.7256 8.14186 16.1576 7.45386 16.7176 6.86186C17.2776 6.25386 17.9416 5.78186 18.7096 5.44587C19.4936 5.09386 20.3576 4.91786 21.3016 4.91786C22.2296 4.91786 23.0776 5.09386 23.8456 5.44587C24.6136 5.78186 25.2776 6.25386 25.8376 6.86186C26.4136 7.45386 26.8536 8.14186 27.1576 8.92586C27.4616 9.70986 27.6136 10.5419 27.6136 11.4219C27.6136 12.2859 27.4616 13.1099 27.1576 13.8939C26.8536 14.6779 26.4216 15.3739 25.8616 15.9819C25.3016 16.5739 24.6296 17.0459 23.8456 17.3979C23.0776 17.7339 22.2216 17.9019 21.2776 17.9019ZM17.1256 11.4459C17.1256 12.3099 17.3096 13.0939 17.6776 13.7979C18.0616 14.5019 18.5656 15.0619 19.1896 15.4779C19.8136 15.8779 20.5096 16.0779 21.2776 16.0779C22.0456 16.0779 22.7416 15.8699 23.3656 15.4539C24.0056 15.0379 24.5096 14.4779 24.8776 13.7739C25.2616 13.0539 25.4536 12.2619 25.4536 11.3979C25.4536 10.5339 25.2616 9.74986 24.8776 9.04586C24.5096 8.34186 24.0056 7.78186 23.3656 7.36586C22.7416 6.94986 22.0456 6.74186 21.2776 6.74186C20.5096 6.74186 19.8136 6.95786 19.1896 7.38986C18.5656 7.80586 18.0616 8.36586 17.6776 9.06986C17.3096 9.77386 17.1256 10.5659 17.1256 11.4459ZM45.4469 5.13386H47.4869L42.1589 17.6619H40.3109L37.8869 11.7579L35.4869 17.6619H33.6389L28.3109 5.13386H30.3269L34.6469 15.5739L36.6629 10.4379L34.5509 5.15786H36.3989L37.8869 9.14186L39.3749 5.15786H41.2229L39.1349 10.4379L41.1509 15.5739L45.4469 5.13386ZM54.5839 17.9019C53.6399 17.9019 52.7759 17.7339 51.9919 17.3979C51.2239 17.0459 50.5519 16.5739 49.9759 15.9819C49.4159 15.3739 48.9759 14.6779 48.6559 13.8939C48.3519 13.1099 48.1999 12.2779 48.1999 11.3979C48.1999 10.2139 48.4719 9.13386 49.0159 8.15786C49.5599 7.18186 50.3119 6.39786 51.2719 5.80586C52.2479 5.21386 53.3599 4.91786 54.6079 4.91786C55.8719 4.91786 56.9679 5.22186 57.8959 5.82986C58.8399 6.42186 59.5679 7.20586 60.0799 8.18186C60.6079 9.14187 60.8719 10.1819 60.8719 11.3019C60.8719 11.4619 60.8639 11.6219 60.8479 11.7819C60.8479 11.9259 60.8399 12.0379 60.8239 12.1179H50.4319C50.4959 12.9339 50.7199 13.6619 51.1039 14.3019C51.5039 14.9259 52.0159 15.4219 52.6399 15.7899C53.2639 16.1419 53.9359 16.3179 54.6559 16.3179C55.4239 16.3179 56.1439 16.1259 56.8159 15.7419C57.5039 15.3579 57.9759 14.8539 58.2319 14.2299L60.0559 14.7339C59.7839 15.3419 59.3759 15.8859 58.8319 16.3659C58.3039 16.8459 57.6719 17.2219 56.9359 17.4939C56.2159 17.7659 55.4319 17.9019 54.5839 17.9019ZM50.3599 10.6539H58.9039C58.8399 9.83786 58.6079 9.11786 58.2079 8.49386C57.8079 7.86986 57.2959 7.38186 56.6719 7.02986C56.0479 6.67786 55.3599 6.50186 54.6079 6.50186C53.8719 6.50186 53.1919 6.67786 52.5679 7.02986C51.9439 7.38186 51.4319 7.86986 51.0319 8.49386C50.6479 9.11786 50.4239 9.83786 50.3599 10.6539ZM69.8436 6.98186C68.7876 6.99786 67.8516 7.26986 67.0356 7.79786C66.2356 8.30986 65.6676 9.02186 65.3316 9.93386V17.6619H63.2196V5.13386H65.1876V8.03786C65.6196 7.17386 66.1876 6.47786 66.8916 5.94986C67.6116 5.40586 68.3636 5.10186 69.1476 5.03786C69.3076 5.03786 69.4436 5.03786 69.5556 5.03786C69.6676 5.03786 69.7636 5.04586 69.8436 5.06186V6.98186ZM85.0184 13.2459C85.0184 14.0779 84.8104 14.8299 84.3944 15.5019C83.9944 16.1579 83.4424 16.6859 82.7384 17.0859C82.0504 17.4699 81.2824 17.6619 80.4344 17.6619H72.4664V0.621864H80.4104C81.2104 0.621864 81.8984 0.837864 82.4744 1.26986C83.0664 1.68586 83.5144 2.22987 83.8184 2.90187C84.1384 3.55787 84.2984 4.24586 84.2984 4.96586C84.2984 5.81386 84.0824 6.60587 83.6504 7.34187C83.2184 8.06186 82.6184 8.58986 81.8504 8.92586C82.8264 9.21386 83.5944 9.75786 84.1544 10.5579C84.7304 11.3419 85.0184 12.2379 85.0184 13.2459ZM83.7944 13.0779C83.7944 12.4699 83.6504 11.9019 83.3624 11.3739C83.0904 10.8459 82.7144 10.4139 82.2344 10.0779C81.7544 9.74186 81.2104 9.57386 80.6024 9.57386H73.6904V16.5579H80.4344C81.0584 16.5579 81.6264 16.3979 82.1384 16.0779C82.6504 15.7419 83.0504 15.3099 83.3384 14.7819C83.6424 14.2379 83.7944 13.6699 83.7944 13.0779ZM73.6904 1.72586V8.54186H79.9304C80.5544 8.54186 81.0984 8.38186 81.5624 8.06187C82.0424 7.72586 82.4184 7.30186 82.6904 6.78987C82.9624 6.26186 83.0984 5.70986 83.0984 5.13386C83.0984 4.50986 82.9704 3.94186 82.7144 3.42986C82.4584 2.91786 82.0984 2.50986 81.6344 2.20586C81.1864 1.88586 80.6664 1.72586 80.0744 1.72586H73.6904ZM87.997 17.6619V5.18186H89.197V17.6619H87.997ZM87.997 2.34986V0.141865H89.197V2.34986H87.997ZM98.8698 6.26186C97.7498 6.29386 96.7658 6.62986 95.9178 7.26986C95.0858 7.89386 94.5018 8.75786 94.1658 9.86186V17.6619H92.9658V5.18186H94.1178V8.25386C94.5498 7.37386 95.1258 6.66186 95.8458 6.11786C96.5658 5.55786 97.3258 5.23786 98.1258 5.15786C98.2858 5.14186 98.4298 5.13386 98.5578 5.13386C98.6858 5.13386 98.7898 5.13386 98.8698 5.13386V6.26186ZM99.8596 11.4459C99.8596 10.2779 100.108 9.20586 100.604 8.22987C101.1 7.25386 101.78 6.46986 102.644 5.87786C103.508 5.26986 104.492 4.96586 105.596 4.96586C106.684 4.96586 107.644 5.25386 108.476 5.82986C109.324 6.40586 109.988 7.09386 110.468 7.89387V0.141865H111.668V16.0779C111.668 16.2699 111.708 16.4139 111.788 16.5099C111.884 16.6059 112.012 16.6619 112.172 16.6779V17.6619C111.916 17.6939 111.724 17.7019 111.596 17.6859C111.308 17.6379 111.068 17.5019 110.876 17.2779C110.684 17.0539 110.588 16.8139 110.588 16.5579V15.1659C110.076 15.9979 109.388 16.6619 108.524 17.1579C107.66 17.6539 106.772 17.9019 105.86 17.9019C104.996 17.9019 104.196 17.7259 103.46 17.3739C102.724 17.0059 102.084 16.5179 101.54 15.9099C101.012 15.3019 100.596 14.6139 100.292 13.8459C100.004 13.0779 99.8596 12.2779 99.8596 11.4459ZM110.468 13.4619V9.35786C110.244 8.74987 109.884 8.19787 109.388 7.70186C108.892 7.18986 108.332 6.78986 107.708 6.50186C107.084 6.19786 106.468 6.04586 105.86 6.04586C105.14 6.04586 104.484 6.19786 103.892 6.50186C103.316 6.80586 102.812 7.21386 102.38 7.72586C101.964 8.23786 101.644 8.82186 101.42 9.47786C101.196 10.1179 101.084 10.7819 101.084 11.4699C101.084 12.1739 101.212 12.8539 101.468 13.5099C101.724 14.1499 102.076 14.7259 102.524 15.2379C102.988 15.7339 103.516 16.1259 104.108 16.4139C104.716 16.6859 105.372 16.8219 106.076 16.8219C106.508 16.8219 106.964 16.7339 107.444 16.5579C107.94 16.3819 108.404 16.1419 108.836 15.8379C109.284 15.5179 109.652 15.1579 109.94 14.7579C110.244 14.3419 110.42 13.9099 110.468 13.4619Z" fill="white"/>
</svg>
